<svg xmlns="http://www.w3.org/2000/svg" width="19.328" height="19.328" viewBox="0 0 19.328 19.328" fill="none">
  <path d="M 0 19.328 L -0.994 19.218 C -1.027 19.52 -0.922 19.821 -0.707 20.036 C -0.492 20.25 -0.191 20.356 0.11 20.322 L 0 19.328 Z M 5.294 18.035 L 4.587 17.328 L 5.294 18.035 Z M 4.683 18.588 L 5.233 19.423 L 4.683 18.588 Z M 3.384 18.952 L 3.495 19.946 L 3.495 19.946 L 3.384 18.952 Z M 4.198 18.821 L 3.89 17.87 L 4.198 18.821 Z M 1.294 14.035 L 0.587 13.328 L 0.587 13.328 L 1.294 14.035 Z M 0.741 14.646 L -0.094 14.095 L 0.741 14.646 Z M 0.376 15.944 L 1.37 16.054 L 1.37 16.054 L 0.376 15.944 Z M 0.508 15.131 L 1.459 15.439 L 0.508 15.131 Z M 18.5 4.828 L 19.207 5.536 L 18.5 4.828 Z M 14.5 0.828 L 15.207 1.536 L 15.207 1.536 L 14.5 0.828 Z M 1.294 14.035 L 2.001 14.742 L 15.207 1.536 L 14.5 0.828 L 13.793 0.121 L 0.587 13.328 L 1.294 14.035 Z M 18.5 4.828 L 17.793 4.121 L 4.587 17.328 L 5.294 18.035 L 6.001 18.742 L 19.207 5.536 L 18.5 4.828 Z M 3.384 18.952 L 3.274 17.959 L -0.11 18.335 L 0 19.328 L 0.11 20.322 L 3.495 19.946 L 3.384 18.952 Z M 0 19.328 L 0.994 19.439 L 1.37 16.054 L 0.376 15.944 L -0.618 15.834 L -0.994 19.218 L 0 19.328 Z M 5.294 18.035 L 4.587 17.328 C 4.264 17.65 4.198 17.71 4.132 17.753 L 4.683 18.588 L 5.233 19.423 C 5.507 19.242 5.735 19.008 6.001 18.742 L 5.294 18.035 Z M 3.384 18.952 L 3.495 19.946 C 3.868 19.905 4.194 19.873 4.506 19.772 L 4.198 18.821 L 3.89 17.87 C 3.816 17.894 3.727 17.908 3.274 17.959 L 3.384 18.952 Z M 4.683 18.588 L 4.132 17.753 C 4.057 17.803 3.976 17.842 3.89 17.87 L 4.198 18.821 L 4.506 19.772 C 4.763 19.689 5.008 19.571 5.233 19.423 L 4.683 18.588 Z M 1.294 14.035 L 0.587 13.328 C 0.321 13.593 0.086 13.821 -0.094 14.095 L 0.741 14.646 L 1.575 15.196 C 1.618 15.131 1.678 15.064 2.001 14.742 L 1.294 14.035 Z M 0.376 15.944 L 1.37 16.054 C 1.42 15.601 1.435 15.513 1.459 15.439 L 0.508 15.131 L -0.444 14.823 C -0.545 15.135 -0.576 15.46 -0.618 15.834 L 0.376 15.944 Z M 0.741 14.646 L -0.094 14.095 C -0.243 14.321 -0.361 14.565 -0.444 14.823 L 0.508 15.131 L 1.459 15.439 C 1.487 15.353 1.526 15.271 1.575 15.196 L 0.741 14.646 Z M 18.5 0.828 L 17.793 1.536 C 18.507 2.25 18.507 3.407 17.793 4.121 L 18.5 4.828 L 19.207 5.536 C 20.702 4.04 20.702 1.616 19.207 0.121 L 18.5 0.828 Z M 18.5 0.828 L 19.207 0.121 C 17.712 -1.374 15.288 -1.374 13.793 0.121 L 14.5 0.828 L 15.207 1.536 C 15.921 0.821 17.079 0.821 17.793 1.536 L 18.5 0.828 Z" fill="currentColor" fill-rule="nonzero"></path>
</svg>