<svg xmlns="http://www.w3.org/2000/svg" width="20" height="18" viewBox="0 0 20 18" fill="none">
  <path d="M 19 18 C 19 18.552 19.448 19 20 19 C 20.552 19 21 18.552 21 18 L 20 18 L 19 18 Z M 17.249 11.158 C 16.714 11.02 16.169 11.342 16.032 11.877 C 15.894 12.412 16.216 12.957 16.751 13.094 L 17 12.126 L 17.249 11.158 Z M 13.875 -0.636 C 13.363 -0.843 12.78 -0.596 12.573 -0.084 C 12.366 0.427 12.613 1.01 13.125 1.218 L 13.5 0.291 L 13.875 -0.636 Z M 13.125 6.782 C 12.613 6.99 12.366 7.573 12.573 8.084 C 12.78 8.596 13.363 8.843 13.875 8.636 L 13.5 7.709 L 13.125 6.782 Z M 12.531 12.304 L 12.913 11.381 L 12.913 11.381 L 12.531 12.304 Z M 14 18 C 14 18.552 14.448 19 15 19 C 15.552 19 16 18.552 16 18 L 15 18 L 14 18 Z M 14.696 14.469 L 15.619 14.087 L 15.619 14.087 L 14.696 14.469 Z M 2.469 12.304 L 2.087 11.381 L 2.087 11.381 L 2.469 12.304 Z M -1 18 C -1 18.552 -0.552 19 0 19 C 0.552 19 1 18.552 1 18 L 0 18 L -1 18 Z M 0.304 14.469 L -0.619 14.087 L -0.619 14.087 L 0.304 14.469 Z M 20 16 L 19 16 L 19 18 L 20 18 L 21 18 L 21 16 L 20 16 Z M 17 12.126 L 16.751 13.094 C 18.045 13.428 19 14.603 19 16 L 20 16 L 21 16 C 21 13.669 19.406 11.713 17.249 11.158 L 17 12.126 Z M 13.5 0.291 L 13.125 1.218 C 14.226 1.663 15 2.743 15 4 L 16 4 L 17 4 C 17 1.9 15.706 0.105 13.875 -0.636 L 13.5 0.291 Z M 16 4 L 15 4 C 15 5.257 14.226 6.337 13.125 6.782 L 13.5 7.709 L 13.875 8.636 C 15.706 7.895 17 6.1 17 4 L 16 4 Z M 6 12 L 6 13 L 9 13 L 9 12 L 9 11 L 6 11 L 6 12 Z M 9 12 L 9 13 C 9.946 13 10.605 13.001 11.121 13.036 C 11.627 13.07 11.923 13.135 12.148 13.228 L 12.531 12.304 L 12.913 11.381 C 12.404 11.169 11.865 11.082 11.257 11.04 C 10.657 10.999 9.918 11 9 11 L 9 12 Z M 15 18 L 16 18 C 16 17.082 16.001 16.343 15.96 15.743 C 15.918 15.135 15.831 14.596 15.619 14.087 L 14.696 14.469 L 13.772 14.852 C 13.865 15.077 13.93 15.373 13.964 15.879 C 13.999 16.395 14 17.054 14 18 L 15 18 Z M 12.531 12.304 L 12.148 13.228 C 12.883 13.533 13.467 14.117 13.772 14.852 L 14.696 14.469 L 15.619 14.087 C 15.112 12.861 14.139 11.888 12.913 11.381 L 12.531 12.304 Z M 6 12 L 6 11 C 5.082 11 4.343 10.999 3.743 11.04 C 3.135 11.082 2.596 11.169 2.087 11.381 L 2.469 12.304 L 2.852 13.228 C 3.077 13.135 3.373 13.07 3.879 13.036 C 4.395 13.001 5.054 13 6 13 L 6 12 Z M 0 18 L 1 18 C 1 17.054 1.001 16.395 1.036 15.879 C 1.07 15.373 1.135 15.077 1.228 14.852 L 0.304 14.469 L -0.619 14.087 C -0.831 14.596 -0.918 15.135 -0.96 15.743 C -1.001 16.343 -1 17.082 -1 18 L 0 18 Z M 2.469 12.304 L 2.087 11.381 C 0.861 11.888 -0.112 12.861 -0.619 14.087 L 0.304 14.469 L 1.228 14.852 C 1.533 14.117 2.117 13.533 2.852 13.228 L 2.469 12.304 Z M 11.5 4 L 10.5 4 C 10.5 5.657 9.157 7 7.5 7 L 7.5 8 L 7.5 9 C 10.261 9 12.5 6.761 12.5 4 L 11.5 4 Z M 7.5 8 L 7.5 7 C 5.843 7 4.5 5.657 4.5 4 L 3.5 4 L 2.5 4 C 2.5 6.761 4.739 9 7.5 9 L 7.5 8 Z M 3.5 4 L 4.5 4 C 4.5 2.343 5.843 1 7.5 1 L 7.5 0 L 7.5 -1 C 4.739 -1 2.5 1.239 2.5 4 L 3.5 4 Z M 7.5 0 L 7.5 1 C 9.157 1 10.5 2.343 10.5 4 L 11.5 4 L 12.5 4 C 12.5 1.239 10.261 -1 7.5 -1 L 7.5 0 Z" fill="currentColor" fill-rule="nonzero"></path>
</svg>